<?xml version="1.0" encoding="UTF-8" standalone="no" ?>
<!DOCTYPE svg PUBLIC "-//W3C//DTD SVG 1.1//EN" "http://www.w3.org/Graphics/SVG/1.1/DTD/svg11.dtd">
<svg xmlns="http://www.w3.org/2000/svg" xmlns:xlink="http://www.w3.org/1999/xlink" version="1.1" width="109" height="57" viewBox="0 0 109 57" xml:space="preserve">
<desc>Created with Fabric.js 5.2.4</desc>
<defs>
</defs>
<g transform="matrix(1 0 0 1 54.5 28.5)" id="ec600338-0673-4458-9abe-91188179e11a"  >
<rect style="stroke: none; stroke-width: 1; stroke-dasharray: none; stroke-linecap: butt; stroke-dashoffset: 0; stroke-linejoin: miter; stroke-miterlimit: 4; fill: rgb(255,255,255); fill-rule: nonzero; opacity: 1; visibility: hidden;" vector-effect="non-scaling-stroke"  x="-54.5" y="-28.5" rx="0" ry="0" width="109" height="57" />
</g>
<g transform="matrix(Infinity NaN NaN Infinity 0 0)" id="5a4bd5a9-83c5-473f-ab28-b11fd57ca068"  >
</g>
<g transform="matrix(0.05 0 0 0.05 109 57)"  >
<g style="" vector-effect="non-scaling-stroke"   >
		<g transform="matrix(1 0 0 1 -142.11 -26.5)"  >
<path style="stroke: none; stroke-width: 1; stroke-dasharray: none; stroke-linecap: butt; stroke-dashoffset: 0; stroke-linejoin: miter; stroke-miterlimit: 4; fill: rgb(254,253,252); fill-rule: nonzero; opacity: 1;" vector-effect="non-scaling-stroke"  transform=" translate(9.47, -35.95)" d="M 0 0 C 1.06734375 0.73669922 1.06734375 0.73669922 2.15625 1.48828125 C 2.15625 2.14828125 2.15625 2.80828125 2.15625 3.48828125 C 2.90777344 3.73449219 3.65929687 3.98070313 4.43359375 4.234375 C 10.90821087 7.21622879 14.77830641 14.76859595 17.37890625 21.1640625 C 21.23235895 32.68569244 20.56288577 42.19027116 16.15625 53.48828125 C 10.16362754 65.41888221 -0.13415551 72.16279972 -12.28125 76.80078125 C -21.33884766 78.54873869 -29.14167704 77.31603417 -37.84375 74.48828125 C -37.84375 70.18995259 -37.65838597 69.81076592 -35.09375 66.73828125 C -26.92775261 56.28580459 -23.4516505 43.72904577 -24.84375 30.48828125 C -26.7613144 19.01713706 -30.09734443 8.70299044 -38.84375 0.48828125 C -37.84375 -2.51171875 -37.84375 -2.51171875 -36.015625 -3.4609375 C -23.36327241 -7.31786434 -11.6981992 -6.21868556 0 0 Z" stroke-linecap="round" />
</g>
		<g transform="matrix(1 0 0 1 -219.64 26.38)"  >
<path style="stroke: none; stroke-width: 1; stroke-dasharray: none; stroke-linecap: butt; stroke-dashoffset: 0; stroke-linejoin: miter; stroke-miterlimit: 4; fill: rgb(254,253,252); fill-rule: nonzero; opacity: 1;" vector-effect="non-scaling-stroke"  transform=" translate(28.16, -38.35)" d="M 0 0 C 0.495 1.485 0.495 1.485 1 3 C -0.0390625 4.69140625 -0.0390625 4.69140625 -1.625 6.5625 C -11.31126705 18.81675412 -13.24899015 31.82684605 -12 47 C -10.31700658 56.6545371 -5.99303788 66.00696212 1 73 C 1 73.99 1 74.98 1 76 C -8.87954467 80.54459055 -18.54497934 81.38589333 -29.03515625 78.22265625 C -40.52383425 73.48490103 -49.06912797 65.34330387 -54.37109375 54.08984375 C -58.39284202 43.527536 -58.23054734 33.32818333 -54.2578125 22.78515625 C -49.01550539 11.17719052 -40.71332278 3.81317918 -29 -1 C -19.90797186 -4.36352486 -8.76627096 -4.38313548 0 0 Z" stroke-linecap="round" />
</g>
		<g transform="matrix(1 0 0 1 -207.16 -38.54)"  >
<path style="stroke: none; stroke-width: 1; stroke-dasharray: none; stroke-linecap: butt; stroke-dashoffset: 0; stroke-linejoin: miter; stroke-miterlimit: 4; fill: rgb(254,253,253); fill-rule: nonzero; opacity: 1;" vector-effect="non-scaling-stroke"  transform=" translate(18.68, -25.43)" d="M 0 0 C 2.93794787 1.74865851 5.45700961 3.72178952 8 6 C 8.60457031 6.50144531 9.20914063 7.00289062 9.83203125 7.51953125 C 17.1245927 14.04947189 22.2706084 24.18492603 23 34 C 22.98231796 41.24079718 22.44002122 47.56865597 19 54 C 15.44633665 53.40241087 13.58027957 52.01843277 10.875 49.6875 C 0.84347554 41.79171946 -12.4561473 38.85723453 -25.16699219 40.23486328 C -36.85133865 42.30879291 -46.88669829 47.59226035 -56 55 C -56.47985967 53.72942818 -56.9588593 52.45853152 -57.4375 51.1875 C -57.83775391 50.12595703 -57.83775391 50.12595703 -58.24609375 49.04296875 C -61.62219897 39.89424838 -60.77084249 29.92629121 -57 21 C -55.45537619 17.91994657 -53.79650541 14.93973613 -52 12 C -51.34 12 -50.68 12 -50 12 C -49.79375 11.443125 -49.5875 10.88625 -49.375 10.3125 C -39.77103715 -5.83961934 -15.20674067 -7.14960296 0 0 Z" stroke-linecap="round" />
</g>
		<g transform="matrix(1 0 0 1 -154.18 38.6)"  >
<path style="stroke: none; stroke-width: 1; stroke-dasharray: none; stroke-linecap: butt; stroke-dashoffset: 0; stroke-linejoin: miter; stroke-miterlimit: 4; fill: rgb(254,253,253); fill-rule: nonzero; opacity: 1;" vector-effect="non-scaling-stroke"  transform=" translate(-37.31, -29.56)" d="M 0 0 C 2.40845137 1.07042283 4.24178195 2.19887184 6.2890625 3.8828125 C 17.48787234 12.62885707 30.10132584 15.05268065 44 14 C 54.50905682 12.32899469 63.9303209 8.61741945 71.52734375 1.0390625 C 72.01332031 0.69617188 72.49929687 0.35328125 73 0 C 73.99 0.33 74.98 0.66 76 1 C 80.1269935 11.61469521 79.83367913 21.40693923 76 32 C 71.16032929 42.89659193 65.49531337 49.00761581 55 54.375 C 54.32340332 54.72135498 53.64680664 55.06770996 52.94970703 55.42456055 C 44.22820759 59.64563083 35.27439316 60.19234296 26.0625 57.375 C 13.02753579 52.68569212 4.15375931 44.30772348 -1.87109375 31.9296875 C -5.68886301 22.02198181 -4.938574 10.73419584 -1 1 C -0.67 0.67 -0.34 0.34 0 0 Z" stroke-linecap="round" />
</g>
		<g transform="matrix(1 0 0 1 148.1 10.95)"  >
<path style="stroke: none; stroke-width: 1; stroke-dasharray: none; stroke-linecap: butt; stroke-dashoffset: 0; stroke-linejoin: miter; stroke-miterlimit: 4; fill: rgb(253,251,250); fill-rule: nonzero; opacity: 1;" vector-effect="non-scaling-stroke"  transform=" translate(16.48, -28.86)" d="M 0 0 C 8.83769651 6.0681988 13.74763197 13.48053583 15.9375 23.9375 C 16.5373392 30.33636007 16.3184239 36.7709937 16.1875 43.1875 C 16.16738994 44.91534372 16.14914719 46.64321022 16.1328125 48.37109375 C 16.0892063 52.56046926 16.02043339 56.74872607 15.9375 60.9375 C 12.95537087 62.42856457 10.22140342 62.05691467 6.9375 61.9375 C 5.35477399 60.35477399 5.59014253 58.55715997 5.375 56.375 C 5.29121094 55.54871094 5.20742188 54.72242188 5.12109375 53.87109375 C 5.06050781 53.23300781 4.99992187 52.59492188 4.9375 51.9375 C 4.47601563 52.33582031 4.01453125 52.73414063 3.5390625 53.14453125 C -3.64211675 58.97746538 -11.18574101 61.62142761 -20.484375 61.28515625 C -28.46186641 60.20940362 -35.79308847 57.12905855 -41.0625 50.9375 C -47.44863786 41.86090591 -50.12541472 34.07739838 -49.0625 22.9375 C -47.11261427 13.31893614 -41.6571929 5.82518596 -33.6171875 0.23828125 C -23.26711695 -5.72240295 -10.53219469 -5.95387224 0 0 Z M -36.0625 14.9375 C -39.90440996 21.82971759 -40.91660354 28.27748099 -39.0625 35.9375 C -36.92063262 42.00612424 -32.62753101 46.99955179 -26.95703125 50.08203125 C -21.31463027 52.26908579 -15.89669197 52.60575845 -10.0625 50.9375 C -3.53280704 47.67845254 0.47860336 42.22096276 3.9375 35.9375 C 6.28335741 28.89992778 5.31385244 21.90432032 2.33203125 15.203125 C -0.80945229 10.09931421 -5.25102706 7.61296448 -10.75 5.5625 C -20.71243772 3.68279477 -29.62449505 6.97699387 -36.0625 14.9375 Z" stroke-linecap="round" />
</g>
		<g transform="matrix(1 0 0 1 76 0.87)"  >
<path style="stroke: none; stroke-width: 1; stroke-dasharray: none; stroke-linecap: butt; stroke-dashoffset: 0; stroke-linejoin: miter; stroke-miterlimit: 4; fill: rgb(253,250,250); fill-rule: nonzero; opacity: 1;" vector-effect="non-scaling-stroke"  transform=" translate(-26.48, -42.84)" d="M 0 0 C 2.97 0 5.94 0 9 0 C 9 10.56 9 21.12 9 32 C 9.66 32 10.32 32 11 32 C 11.38285156 31.09121094 11.38285156 31.09121094 11.7734375 30.1640625 C 14.40888119 25.51426694 19.95044047 23.10412788 24.9375 21.625 C 31.6641207 20.28493103 36.99715809 21.05106121 42.8125 24.75 C 48.67686845 29.05121798 51.44110813 32.80511443 53 40 C 53.86150462 45.92694297 54.13932337 51.77176866 54.09765625 57.75390625 C 54.0962413 58.54022934 54.09482635 59.32655243 54.09336853 60.13670349 C 54.08783672 62.61201015 54.07529775 65.08722137 54.0625 67.5625 C 54.05747616 69.25585806 54.05291481 70.94921755 54.04882812 72.64257812 C 54.03788978 76.7617547 54.02067362 80.88086125 54 85 C 49.94568308 86.15837626 47.78187881 85.83691257 44 84 C 44.01047363 82.9262915 44.02094727 81.85258301 44.03173828 80.74633789 C 44.06820009 76.72635287 44.09099487 72.70638219 44.10986328 68.6862793 C 44.11986161 66.95318129 44.13346473 65.2200999 44.15087891 63.48706055 C 44.17540084 60.98221716 44.18654496 58.47759864 44.1953125 55.97265625 C 44.20563507 55.20977798 44.21595764 54.44689972 44.22659302 53.66090393 C 44.22792044 47.1575385 43.52249126 40.86228356 40.4375 35.0625 C 36.3377842 31.59350971 31.93331588 30.80701869 26.625 31.15625 C 21.12229075 32.12294216 17.8488269 33.96789563 14 38 C 10.05691423 44.39051832 9.85063719 50.89962432 9.68359375 58.2421875 C 9.66281265 59.01055939 9.64203156 59.77893127 9.62062073 60.57058716 C 9.55566531 63.00530767 9.49649362 65.44012847 9.4375 67.875 C 9.3942633 69.5338642 9.35064743 71.19271856 9.30664062 72.8515625 C 9.20003997 76.90094104 9.0986233 80.95041963 9 85 C 7.52093108 85.02689216 6.04172517 85.04634621 4.5625 85.0625 C 3.32693359 85.07990234 3.32693359 85.07990234 2.06640625 85.09765625 C 0 85 0 85 -1 84 C -1.10039611 81.41899244 -1.13617269 78.86472103 -1.12939453 76.28320312 C -1.13114685 75.47511703 -1.13289917 74.66703094 -1.13470459 73.8344574 C -1.13912376 71.1500334 -1.13618489 68.46567472 -1.1328125 65.78125 C -1.13348552 63.92419421 -1.13445553 62.0671385 -1.13571167 60.21008301 C -1.13718873 56.31273563 -1.13503382 52.41541113 -1.13037109 48.51806641 C -1.1246738 43.510655 -1.12795276 38.50329719 -1.13394356 33.49588776 C -1.13754895 29.65960279 -1.13641069 25.82333063 -1.13381577 21.98704529 C -1.13314644 20.14017226 -1.13397513 18.29329808 -1.13629532 16.44642639 C -1.13882149 13.86985168 -1.13498177 11.29336499 -1.12939453 8.71679688 C -1.13141876 7.9458519 -1.13344299 7.17490692 -1.13552856 6.38059998 C -1.11426255 1.11426255 -1.11426255 1.11426255 0 0 Z" stroke-linecap="round" />
</g>
		<g transform="matrix(1 0 0 1 3.55 10.75)"  >
<path style="stroke: none; stroke-width: 1; stroke-dasharray: none; stroke-linecap: butt; stroke-dashoffset: 0; stroke-linejoin: miter; stroke-miterlimit: 4; fill: rgb(253,250,249); fill-rule: nonzero; opacity: 1;" vector-effect="non-scaling-stroke"  transform=" translate(17.31, -28.24)" d="M 0 0 C 7.04435161 5.14237668 12.39993534 10.96781903 14.65625 19.5234375 C 15.83699491 29.89796925 15.33537188 39.04374213 9.11328125 47.66015625 C 3.13087483 55.06629326 -3.75869293 59.15910678 -13.0625 61.203125 C -22.35504534 62.11025443 -30.92887251 59.23995094 -38.22265625 53.5390625 C -45.43734768 46.68311263 -49.34491774 38.05740239 -49.78125 28.1484375 C -49.41717293 18.10831224 -45.70429177 10.86909472 -38.7890625 3.69140625 C -27.92232463 -5.94284218 -12.51299518 -7.88318697 0 0 Z M -35.96875 14.42578125 C -40.2929131 21.02258689 -40.0288922 27.86545571 -39.34375 35.5234375 C -37.70870914 41.74050904 -33.68525554 46.09041914 -28.34375 49.5234375 C -21.24754446 52.4144842 -14.36747725 52.47049059 -7.15625 50.0234375 C -0.65147044 47.16052519 2.40864609 42.585738 5.03125 36.1484375 C 6.61328069 26.97265951 5.9574916 20.40517766 0.65625 12.5234375 C -3.88152712 7.04138306 -10.47217022 5.10005577 -17.28125 4.0859375 C -25.29718458 5.23107101 -30.81609174 8.19552378 -35.96875 14.42578125 Z" stroke-linecap="round" />
</g>
		<g transform="matrix(1 0 0 1 -62.77 0.59)"  >
<path style="stroke: none; stroke-width: 1; stroke-dasharray: none; stroke-linecap: butt; stroke-dashoffset: 0; stroke-linejoin: miter; stroke-miterlimit: 4; fill: rgb(253,250,249); fill-rule: nonzero; opacity: 1;" vector-effect="non-scaling-stroke"  transform=" translate(12.29, -39.56)" d="M 0 0 C 9.37760911 7.13282732 9.37760911 7.13282732 11 12 C 9.02 13.65 7.04 15.3 5 17 C 2.05166688 15.6732501 0.04091028 14.20060797 -2.25 11.9375 C -6.15354899 8.51142374 -8.8269355 8 -14 8 C -17.05796914 8.73125349 -18.45263464 9.13098695 -20.13671875 11.8046875 C -21.10740461 14.27312847 -21.18800991 15.80942328 -20.9375 18.4375 C -20.88464844 19.17871094 -20.83179688 19.91992188 -20.77734375 20.68359375 C -18.90059018 26.27613077 -12.80094021 29.83127301 -8.25 33.3125 C 11.21008674 48.4622923 11.21008674 48.4622923 12.37109375 56.6015625 C 12.6568728 62.88870152 11.85019227 67.93058018 8 73 C 3.4859614 77.68054003 -0.75283011 81.67827579 -7.390625 82.3359375 C -17.32162042 82.43645365 -23.46550664 81.5292142 -30.8125 74.5625 C -33.29922054 71.90506637 -35.50844623 69.35599599 -37 66 C -36 63 -36 63 -33.6875 61.1875 C -31 60 -31 60 -29.015625 60.67578125 C -26.69736565 62.19882373 -25.59068067 63.69714603 -24.0625 66 C -21.65554512 69.31331445 -20.17760105 71.20426647 -16 72 C -10.35023464 72.44839408 -6.89948331 72.14966784 -2 69 C 0.60763464 65.08854803 1.48314247 61.69105162 0.63671875 56.9765625 C -2.13734971 48.0927359 -9.86988176 44.39620565 -17.34765625 39.71875 C -23.98377068 35.41846966 -29.24978214 30.90107239 -31.578125 23.05078125 C -33.01023402 16.08914018 -32.17644727 11.00976967 -28.42578125 4.9453125 C -21.49302791 -4.5136222 -9.85463948 -5.18580209 0 0 Z" stroke-linecap="round" />
</g>
		<g transform="matrix(1 0 0 1 221.02 11.06)"  >
<path style="stroke: none; stroke-width: 1; stroke-dasharray: none; stroke-linecap: butt; stroke-dashoffset: 0; stroke-linejoin: miter; stroke-miterlimit: 4; fill: rgb(253,251,251); fill-rule: nonzero; opacity: 1;" vector-effect="non-scaling-stroke"  transform=" translate(20.5, -25.02)" d="M 0 0 C 8.61019727 9.41677313 7.29180658 23.05507605 7.20581055 34.93481445 C 7.18732581 37.58749813 7.18530285 40.23983617 7.18554688 42.89257812 C 7.18063899 44.57552388 7.17481388 46.25846726 7.16796875 47.94140625 C 7.16685593 48.73607803 7.1657431 49.53074982 7.16459656 50.34950256 C 7.11612494 55.88387506 7.11612494 55.88387506 6 57 C 4.48071962 57.07179964 2.95832518 57.08392007 1.4375 57.0625 C 0.19806641 57.04896484 0.19806641 57.04896484 -1.06640625 57.03515625 C -2.02353516 57.01775391 -2.02353516 57.01775391 -3 57 C -3.01458252 55.69853027 -3.02916504 54.39706055 -3.04418945 53.05615234 C -3.10228934 48.21408008 -3.17952191 43.37246715 -3.26245117 38.53076172 C -3.29564549 36.43773876 -3.32369445 34.34462747 -3.34643555 32.25146484 C -3.38008231 29.23757388 -3.43240393 26.22448837 -3.48828125 23.2109375 C -3.49467117 22.27945892 -3.5010611 21.34798035 -3.50764465 20.38827515 C -3.6241852 15.2044591 -4.0815236 11.47260984 -7 7 C -12.04904143 3.83314561 -18.21400595 3.44895295 -24 4 C -28.16627881 4.98254107 -31.19741242 6.30030826 -34.4375 9.125 C -39.24497755 17.97075869 -37.34132225 31.5124862 -37.55224609 41.46533203 C -37.60374918 43.83116669 -37.66099787 46.19681097 -37.71875 48.5625 C -37.73232544 49.2946875 -37.74590088 50.026875 -37.7598877 50.78125 C -37.8869797 55.8869797 -37.8869797 55.8869797 -39 57 C -40.8125 57.1328125 -40.8125 57.1328125 -43 57.125 C -43.721875 57.12757813 -44.44375 57.13015625 -45.1875 57.1328125 C -47 57 -47 57 -48 56 C -48.12610773 53.38956993 -48.18870308 50.80715035 -48.203125 48.1953125 C -48.20882507 47.40156219 -48.21452515 46.60781189 -48.22039795 45.79000854 C -48.22987108 44.10025369 -48.23639106 42.41048016 -48.24023438 40.72070312 C -48.24982985 38.17022698 -48.28078253 35.6205954 -48.3125 33.0703125 C -48.38418935 22.05348521 -48.44789162 10.89609277 -41 2 C -29.76002364 -9.37704925 -12.37848323 -10.09187176 0 0 Z" stroke-linecap="round" />
</g>
		<g transform="matrix(1 0 0 1 243.53 26.53)"  >
<path style="stroke: none; stroke-width: 1; stroke-dasharray: none; stroke-linecap: butt; stroke-dashoffset: 0; stroke-linejoin: miter; stroke-miterlimit: 4; fill: rgb(254,240,236); fill-rule: nonzero; opacity: 1;" vector-effect="non-scaling-stroke"  transform=" translate(-5.02, -16.5)" d="M 0 0 C 0.33 0 0.66 0 1 0 C 1.02505615 0.90355225 1.0501123 1.80710449 1.07592773 2.73803711 C 1.17087317 6.0796428 1.27011621 9.42106252 1.37231445 12.76245117 C 1.4157163 14.2106424 1.45738744 15.65888654 1.49731445 17.10717773 C 1.55489062 19.18489559 1.61862028 21.26234573 1.68359375 23.33984375 C 1.72025146 24.59144287 1.75690918 25.84304199 1.79467773 27.13256836 C 1.67803906 29.89630504 1.67803906 29.89630504 3 31 C 4.66617115 31.04063832 6.33388095 31.042721 8 31 C 8.33 29.35 8.66 27.7 9 26 C 9.33 26 9.66 26 10 26 C 10.04254356 27.99954746 10.04080783 30.00041636 10 32 C 9.505 32.495 9.505 32.495 9 33 C 6.03 33 3.06 33 0 33 C 0 22.11 0 11.22 0 0 Z" stroke-linecap="round" />
</g>
		<g transform="matrix(1 0 0 1 -242.48 -12.97)"  >
<path style="stroke: none; stroke-width: 1; stroke-dasharray: none; stroke-linecap: butt; stroke-dashoffset: 0; stroke-linejoin: miter; stroke-miterlimit: 4; fill: rgb(254,244,243); fill-rule: nonzero; opacity: 1;" vector-effect="non-scaling-stroke"  transform=" translate(-4, -4)" d="M 0 0 C 3.35595828 0.59927826 5.37801226 1.84622436 8 4 C 6.02 5.32 4.04 6.64 2 8 C 0.23537317 4.91190305 0 3.76687864 0 0 Z" stroke-linecap="round" />
</g>
		<g transform="matrix(1 0 0 1 -223.48 -8.87)"  >
<path style="stroke: none; stroke-width: 1; stroke-dasharray: none; stroke-linecap: butt; stroke-dashoffset: 0; stroke-linejoin: miter; stroke-miterlimit: 4; fill: rgb(254,244,241); fill-rule: nonzero; opacity: 1;" vector-effect="non-scaling-stroke"  transform=" translate(7, -3.1)" d="M 0 0 C -0.66 0 -1.32 0 -2 0 C -2.33 0.66 -2.66 1.32 -3 2 C -4.64991582 2.70710678 -6.3207762 3.36562656 -8 4 C -10.00751815 4.98482022 -12.00934459 5.98152514 -14 7 C -14 6.01 -14 5.02 -14 4 C -12.42466914 3.13116294 -10.83935491 2.28040932 -9.25 1.4375 C -8.36828125 0.96183594 -7.4865625 0.48617187 -6.578125 -0.00390625 C -3.79298812 -1.07998186 -2.73019786 -1.06528748 0 0 Z" stroke-linecap="round" />
</g>
		<g transform="matrix(1 0 0 1 -17.48 33.53)"  >
<path style="stroke: none; stroke-width: 1; stroke-dasharray: none; stroke-linecap: butt; stroke-dashoffset: 0; stroke-linejoin: miter; stroke-miterlimit: 4; fill: rgb(254,243,239); fill-rule: nonzero; opacity: 1;" vector-effect="non-scaling-stroke"  transform=" translate(-5, -4.5)" d="M 0 0 C 1.98 0.99 1.98 0.99 4 2 C 4 2.66 4 3.32 4 4 C 4.99 3.67 5.98 3.34 7 3 C 10 6.75 10 6.75 10 9 C 5.68679932 7.24277009 2.0968916 4.1937832 0 0 Z" stroke-linecap="round" />
</g>
		<g transform="matrix(1 0 0 1 -240.48 -48.97)"  >
<path style="stroke: none; stroke-width: 1; stroke-dasharray: none; stroke-linecap: butt; stroke-dashoffset: 0; stroke-linejoin: miter; stroke-miterlimit: 4; fill: rgb(254,245,243); fill-rule: nonzero; opacity: 1;" vector-effect="non-scaling-stroke"  transform=" translate(3, -6)" d="M 0 0 C 0.33 0.99 0.66 1.98 1 3 C 0.566875 3.37125 0.13375 3.7425 -0.3125 4.125 C -2.46152985 6.51281095 -3.64757984 9.1019568 -5 12 C -5.66 12 -6.32 12 -7 12 C -5.94124926 8.59687262 -4.99097846 5.98646769 -3 3 C -2.34 3 -1.68 3 -1 3 C -0.67 2.01 -0.34 1.02 0 0 Z" stroke-linecap="round" />
</g>
		<g transform="matrix(1 0 0 1 236.06 -2.97)"  >
<path style="stroke: none; stroke-width: 1; stroke-dasharray: none; stroke-linecap: butt; stroke-dashoffset: 0; stroke-linejoin: miter; stroke-miterlimit: 4; fill: rgb(254,246,238); fill-rule: nonzero; opacity: 1;" vector-effect="non-scaling-stroke"  transform=" translate(-3.54, -7)" d="M 0 0 C 1.8125 0.0625 1.8125 0.0625 4 1 C 6.48612064 5.52829116 7.38279888 8.76841536 7 14 C 6.67 14 6.34 14 6 14 C 5.81824219 13.38511719 5.63648438 12.77023438 5.44921875 12.13671875 C 5.07216797 10.92435547 5.07216797 10.92435547 4.6875 9.6875 C 4.32205078 8.48673828 4.32205078 8.48673828 3.94921875 7.26171875 C 2.95212938 4.88593789 1.83632738 3.75402699 0 2 C 0 1.34 0 0.68 0 0 Z" stroke-linecap="round" />
</g>
		<g transform="matrix(1 0 0 1 -128.98 57.53)"  >
<path style="stroke: none; stroke-width: 1; stroke-dasharray: none; stroke-linecap: butt; stroke-dashoffset: 0; stroke-linejoin: miter; stroke-miterlimit: 4; fill: rgb(254,247,240); fill-rule: nonzero; opacity: 1;" vector-effect="non-scaling-stroke"  transform=" translate(2.5, -3.5)" d="M 0 0 C 0.66 0.33 1.32 0.66 2 1 C 0.8803014 2.00593243 -0.2459412 3.0045849 -1.375 4 C -2.00148437 4.556875 -2.62796875 5.11375 -3.2734375 5.6875 C -5 7 -5 7 -7 7 C -5.55609075 3.19333016 -3.65047197 1.73397418 0 0 Z" stroke-linecap="round" />
</g>
		<g transform="matrix(1 0 0 1 -227.98 -20.97)"  >
<path style="stroke: none; stroke-width: 1; stroke-dasharray: none; stroke-linecap: butt; stroke-dashoffset: 0; stroke-linejoin: miter; stroke-miterlimit: 4; fill: rgb(253,246,241); fill-rule: nonzero; opacity: 1;" vector-effect="non-scaling-stroke"  transform=" translate(1.5, -3)" d="M 0 0 C 1.32 0.66 2.64 1.32 4 2 C 2.54618103 2.69699552 1.08677047 3.38233866 -0.375 4.0625 C -1.18710938 4.44535156 -1.99921875 4.82820313 -2.8359375 5.22265625 C -3.55007812 5.47917969 -4.26421875 5.73570313 -5 6 C -5.66 5.67 -6.32 5.34 -7 5 C -6.030625 4.360625 -5.06125 3.72125 -4.0625 3.0625 C -1.23963731 1.3034741 -1.23963731 1.3034741 0 0 Z" stroke-linecap="round" />
</g>
		<g transform="matrix(1 0 0 1 -149.98 24.52)"  >
<path style="stroke: none; stroke-width: 1; stroke-dasharray: none; stroke-linecap: butt; stroke-dashoffset: 0; stroke-linejoin: miter; stroke-miterlimit: 4; fill: rgb(253,245,242); fill-rule: nonzero; opacity: 1;" vector-effect="non-scaling-stroke"  transform=" translate(6.5, -0.48)" d="M 0 0 C -3.1749094 1.9078584 -5.10585211 2.1609041 -8.75 1.625 C -9.54921875 1.51414063 -10.3484375 1.40328125 -11.171875 1.2890625 C -11.77515625 1.19367188 -12.3784375 1.09828125 -13 1 C -13 0.67 -13 0.34 -13 0 C -11.58456585 -0.19658808 -10.16755969 -0.38187546 -8.75 -0.5625 C -7.96109375 -0.66691406 -7.1721875 -0.77132812 -6.359375 -0.87890625 C -3.99467126 -1.00027349 -2.2488963 -0.69633257 0 0 Z" stroke-linecap="round" />
</g>
		<g transform="matrix(1 0 0 1 -189.98 12.03)"  >
<path style="stroke: none; stroke-width: 1; stroke-dasharray: none; stroke-linecap: butt; stroke-dashoffset: 0; stroke-linejoin: miter; stroke-miterlimit: 4; fill: rgb(255,240,237); fill-rule: nonzero; opacity: 1;" vector-effect="non-scaling-stroke"  transform=" translate(-1.5, -3)" d="M 0 0 C 3.875 1.75 3.875 1.75 5 4 C 3.68 4 2.36 4 1 4 C 0.67 4.66 0.34 5.32 0 6 C -0.66 6 -1.32 6 -2 6 C -1.34 4.02 -0.68 2.04 0 0 Z" stroke-linecap="round" />
</g>
		<g transform="matrix(1 0 0 1 161.02 38.6)"  >
<path style="stroke: none; stroke-width: 1; stroke-dasharray: none; stroke-linecap: butt; stroke-dashoffset: 0; stroke-linejoin: miter; stroke-miterlimit: 4; fill: rgb(254,244,240); fill-rule: nonzero; opacity: 1;" vector-effect="non-scaling-stroke"  transform=" translate(2.81, -2.31)" d="M 0 0 C 0.8353125 0.37125 0.8353125 0.37125 1.6875 0.75 C -1.125 2.8125 -1.125 2.8125 -4.3125 4.75 C -5.3025 4.42 -6.2925 4.09 -7.3125 3.75 C -2.88173077 -0.31153846 -2.88173077 -0.31153846 0 0 Z" stroke-linecap="round" />
</g>
		<g transform="matrix(1 0 0 1 -116.48 -40.47)"  >
<path style="stroke: none; stroke-width: 1; stroke-dasharray: none; stroke-linecap: butt; stroke-dashoffset: 0; stroke-linejoin: miter; stroke-miterlimit: 4; fill: rgb(255,241,237); fill-rule: nonzero; opacity: 1;" vector-effect="non-scaling-stroke"  transform=" translate(-2, -5.5)" d="M 0 0 C 3.14958831 3.42346555 3.56179109 6.44262737 4 11 C 0.85041169 7.57653445 0.43820891 4.55737263 0 0 Z" stroke-linecap="round" />
</g>
</g>
</g>
</svg>